<svg id="Layer_1" data-name="Layer 1" xmlns="http://www.w3.org/2000/svg" viewBox="0 0 400 200"><defs><style>.cls-1{fill:#a90000;}.cls-2,.cls-3{fill:#fff;}.cls-3{fill-rule:evenodd;}</style></defs><title>Artboard 1</title><rect class="cls-1" y="15.16" width="132.86" height="35.02"/><rect class="cls-2" y="88.69" width="78.1" height="34.98"/><rect class="cls-2" y="161.02" width="177.17" height="34.98"/><rect class="cls-2" x="389.51" width="10.49" height="196"/><path class="cls-3" d="M347.45,177.17a14.73,14.73,0,0,1-1.19,5.27,10.1,10.1,0,0,1-2.71,3.55q-.08-1.39-.23-2.77t-.35-2.81a72,72,0,0,0-2-9.16,63.53,63.53,0,0,0-3.37-9.14,61,61,0,0,0-4.87-8.67,51.82,51.82,0,0,0-6.39-7.75l-6.21,6.23a42.85,42.85,0,0,1,5.4,6.58,52.17,52.17,0,0,1,4.11,7.4,55.73,55.73,0,0,1,2.88,7.85,62.09,62.09,0,0,1,1.7,7.93q.29,2.09.43,4.08t.14,3.83q-2.1.45-4.54.94t-5.08.78L326.7,200q4.44-.74,8.26-1.41a61.18,61.18,0,0,0,7-1.64,28.16,28.16,0,0,0,5.69-2.38,15,15,0,0,0,4.31-3.65,17.17,17.17,0,0,0,2.88-5.43,32,32,0,0,0,1.4-7.75V145.32h-8.79Z"/><rect class="cls-2" x="365.2" y="145.32" width="8.79" height="49.44"/><path class="cls-3" d="M313,142.77a2,2,0,0,1-.45-1.27,2.19,2.19,0,0,1,.49-1.37,1.9,1.9,0,0,1,1.6-.64l4.56,0v-3.4h-4.56a5.12,5.12,0,0,0-2.2.45,4.59,4.59,0,0,0-1.6,1.21,5.31,5.31,0,0,0-1,1.72,6.12,6.12,0,0,0-.33,2,8,8,0,0,0,.06,1,3.23,3.23,0,0,0,.27.94h-1.56v3.4h11.26v-3.4h-5.14A1.94,1.94,0,0,1,313,142.77Z"/><path class="cls-3" d="M293.64,185.28a6.83,6.83,0,0,1-2.34-2,8.26,8.26,0,0,1-1.36-2.79,11.74,11.74,0,0,1-.43-3.16,11.45,11.45,0,0,1,.45-3.18,8.54,8.54,0,0,1,1.38-2.81,7.13,7.13,0,0,1,2.32-2,6.88,6.88,0,0,1,3.33-.76h15v-8.81H297a15.72,15.72,0,0,0-7,1.5,15.41,15.41,0,0,0-5.1,4,17,17,0,0,0-3.1,5.62,20.4,20.4,0,0,0-1,6.48,21.24,21.24,0,0,0,.47,4.49,17.44,17.44,0,0,0,1.46,4.16H267v-40.7h-8.79V186H244.88V164.5a4.43,4.43,0,0,0-.33-1.7,4.57,4.57,0,0,0-2.28-2.42,3.87,3.87,0,0,0-1.7-.39l-7.52-.16q-6.95,0-10.71,3.73t-3.76,10.66V186l-10.89,0a12.15,12.15,0,0,1-4.11-.57,5.82,5.82,0,0,1-2.42-1.56,5.25,5.25,0,0,1-1.17-2.3,13.78,13.78,0,0,1-.35-2.79,18,18,0,0,1,.57-4.55,17.2,17.2,0,0,1,1.36-3.69l-7.81-4.06a24.31,24.31,0,0,0-1.11,2.5,28.15,28.15,0,0,0-.94,3,27.23,27.23,0,0,0-.64,3.28,25.86,25.86,0,0,0-.23,3.42,20.13,20.13,0,0,0,.88,5.92,13.75,13.75,0,0,0,2.88,5.14,14.54,14.54,0,0,0,5.2,3.65,19.77,19.77,0,0,0,7.89,1.39H223a4.27,4.27,0,0,0,1.85-.39,4.27,4.27,0,0,0,2.28-2.54,5.61,5.61,0,0,0,.31-1.86l0-15.82a11.14,11.14,0,0,1,.27-2.66,3.81,3.81,0,0,1,.88-1.72,3.5,3.5,0,0,1,1.68-.94,10.48,10.48,0,0,1,2.67-.29l3.21.08v21.77a4.19,4.19,0,0,0,.35,1.7,4.45,4.45,0,0,0,2.34,2.34,4.23,4.23,0,0,0,1.7.35h72.78V186H297A7.15,7.15,0,0,1,293.64,185.28Z"/><path class="cls-3" d="M305.56,73.4a4.81,4.81,0,0,0-1.87-.37,4.66,4.66,0,0,0-1.85.37,4.74,4.74,0,0,0-1.5,1,4.69,4.69,0,0,0-1,1.52,4.76,4.76,0,0,0-.37,1.86,4.61,4.61,0,0,0,.37,1.84,4.68,4.68,0,0,0,2.51,2.5,4.64,4.64,0,0,0,1.85.37,4.79,4.79,0,0,0,1.87-.37,4.68,4.68,0,0,0,1.52-1,4.75,4.75,0,0,0,1-1.5,4.64,4.64,0,0,0,.37-1.84,4.79,4.79,0,0,0-.37-1.86,4.57,4.57,0,0,0-2.53-2.52Z"/><path class="cls-3" d="M118.23,86A15.13,15.13,0,0,0,113,88.67a13.67,13.67,0,0,0-3.76,4.67,15,15,0,0,0-1.44,6.82,13.83,13.83,0,0,0,1,5.7,10.33,10.33,0,0,0,2.69,3.65,13.78,13.78,0,0,0,3.82,2.3q2.14.86,4.44,1.64,1.64.57,2.92,1.11a9.66,9.66,0,0,1,2.18,1.23,4.65,4.65,0,0,1,1.38,1.68,5.67,5.67,0,0,1,.47,2.46,5.77,5.77,0,0,1-.21,1.56,3.08,3.08,0,0,1-.72,1.29,3.56,3.56,0,0,1-1.4.88,6.36,6.36,0,0,1-2.2.33H110.06a12.15,12.15,0,0,1-4.11-.57,6,6,0,0,1-2.44-1.56,5.12,5.12,0,0,1-1.19-2.29,12.16,12.16,0,0,1-.31-2.79,17.74,17.74,0,0,1,.57-4.53,18.27,18.27,0,0,1,1.36-3.71l-7.81-4.06A24.28,24.28,0,0,0,95,107a28.15,28.15,0,0,0-.95,3,30.25,30.25,0,0,0-.66,3.28,23.74,23.74,0,0,0-.25,3.42,20.43,20.43,0,0,0,.86,5.88,13.7,13.7,0,0,0,2.86,5.16,14.39,14.39,0,0,0,5.22,3.67,20.07,20.07,0,0,0,8,1.39l11.92.08a14.85,14.85,0,0,0,6-1.13,12.26,12.26,0,0,0,4.21-3,12,12,0,0,0,2.47-4.16,14.26,14.26,0,0,0,.8-4.69,14.77,14.77,0,0,0-.64-4.28,15.54,15.54,0,0,0-1.83-4,11.92,11.92,0,0,0-2.2-2.5,15.29,15.29,0,0,0-2.57-1.76,20.69,20.69,0,0,0-2.81-1.27q-1.46-.53-2.94-1-1.11-.37-2.18-.76a9.89,9.89,0,0,1-1.91-.92,4.64,4.64,0,0,1-1.36-1.27,3,3,0,0,1-.51-1.76,6.94,6.94,0,0,1,.62-3.12,5.21,5.21,0,0,1,1.66-2,6.73,6.73,0,0,1,2.4-1,13,13,0,0,1,2.88-.31,15.82,15.82,0,0,1,3.72.43,13.26,13.26,0,0,1,3.1,1.13l4.27-7.71a22.19,22.19,0,0,0-5.08-1.91,24.15,24.15,0,0,0-5.9-.72A21.83,21.83,0,0,0,118.23,86Z"/><path class="cls-3" d="M121.38,137.51a4.8,4.8,0,0,0-1.87-.37,4.66,4.66,0,0,0-1.85.37,4.73,4.73,0,0,0-1.5,1,4.62,4.62,0,0,0-1,1.52,4.76,4.76,0,0,0-.37,1.86,4.61,4.61,0,0,0,.37,1.84,4.7,4.7,0,0,0,4.36,2.87,4.8,4.8,0,0,0,1.87-.37,4.62,4.62,0,0,0,2.53-2.5,4.61,4.61,0,0,0,.37-1.84,4.76,4.76,0,0,0-.37-1.86,4.57,4.57,0,0,0-2.53-2.52Z"/><path class="cls-3" d="M294.55,73.4a4.81,4.81,0,0,0-1.87-.37,4.66,4.66,0,0,0-1.85.37,4.74,4.74,0,0,0-1.5,1,4.69,4.69,0,0,0-1,1.52,4.76,4.76,0,0,0-.37,1.86,4.61,4.61,0,0,0,.37,1.84,4.68,4.68,0,0,0,2.51,2.5,4.64,4.64,0,0,0,1.85.37,4.79,4.79,0,0,0,1.87-.37,4.66,4.66,0,0,0,1.52-1,4.71,4.71,0,0,0,1-1.5,4.61,4.61,0,0,0,.37-1.84,4.76,4.76,0,0,0-.37-1.86,4.57,4.57,0,0,0-2.53-2.52Z"/><path class="cls-3" d="M173.07,104.28A26.19,26.19,0,0,0,171.26,99a18.71,18.71,0,0,0-2.81-4.3,18.4,18.4,0,0,0-4-3.4A21.64,21.64,0,0,0,159.33,89a34,34,0,0,0-6.47-1.29,68.81,68.81,0,0,0-8-.35l.08,8.77a42.15,42.15,0,0,1,10.71,1,11.66,11.66,0,0,1,6.1,3.42,12.11,12.11,0,0,1,2.59,5.21,39.47,39.47,0,0,1,1,7.83H142.15v8.81h27.78a4.22,4.22,0,0,0,1.71-.35,4.45,4.45,0,0,0,2.34-2.34,4.2,4.2,0,0,0,.35-1.7q0-4-.29-7.38A43.63,43.63,0,0,0,173.07,104.28Z"/><path class="cls-3" d="M110.36,137.51a4.81,4.81,0,0,0-1.87-.37,4.65,4.65,0,0,0-1.85.37,4.75,4.75,0,0,0-1.5,1,4.66,4.66,0,0,0-1,1.52,4.79,4.79,0,0,0-.37,1.86,4.63,4.63,0,0,0,.37,1.84,4.67,4.67,0,0,0,2.51,2.5,4.66,4.66,0,0,0,1.85.37,4.81,4.81,0,0,0,1.87-.37,4.62,4.62,0,0,0,2.53-2.5,4.61,4.61,0,0,0,.37-1.84,4.76,4.76,0,0,0-.37-1.86,4.57,4.57,0,0,0-2.53-2.52Z"/><path class="cls-3" d="M347.45,104.51a14.73,14.73,0,0,1-1.19,5.27,10.11,10.11,0,0,1-2.71,3.55q-.08-1.39-.23-2.77t-.35-2.81a71.7,71.7,0,0,0-2-9.16,63.4,63.4,0,0,0-3.37-9.14,60.88,60.88,0,0,0-4.87-8.67A51.66,51.66,0,0,0,326.37,73l-6.2,6.23a42.89,42.89,0,0,1,5.4,6.58,52.23,52.23,0,0,1,4.11,7.4,55.79,55.79,0,0,1,2.88,7.85,62.35,62.35,0,0,1,1.71,7.93q.29,2.09.43,4.08t.14,3.83q-2.09.45-4.54.94t-5.08.78l1.48,8.69q4.44-.74,8.26-1.41a60.9,60.9,0,0,0,7-1.64,28.15,28.15,0,0,0,5.69-2.38,15,15,0,0,0,4.31-3.65,17.24,17.24,0,0,0,2.88-5.43,32,32,0,0,0,1.4-7.75V72.66h-8.79Z"/><rect class="cls-2" x="365.2" y="72.66" width="8.79" height="49.44"/><path class="cls-3" d="M260.64,74.4a4.68,4.68,0,0,0-1.52-1,4.81,4.81,0,0,0-1.87-.37,4.66,4.66,0,0,0-1.85.37,4.74,4.74,0,0,0-1.5,1,4.69,4.69,0,0,0-1,1.52,4.76,4.76,0,0,0-.37,1.86,4.61,4.61,0,0,0,.37,1.84,4.68,4.68,0,0,0,2.51,2.5,4.64,4.64,0,0,0,1.85.37,4.79,4.79,0,0,0,1.87-.37,4.66,4.66,0,0,0,1.52-1,4.71,4.71,0,0,0,1-1.5,4.61,4.61,0,0,0,.37-1.84,4.76,4.76,0,0,0-.37-1.86A4.67,4.67,0,0,0,260.64,74.4Z"/><path class="cls-3" d="M264.92,81.12a4.72,4.72,0,0,0,1.5,1,4.64,4.64,0,0,0,1.85.37,4.79,4.79,0,0,0,1.87-.37,4.68,4.68,0,0,0,1.52-1,4.75,4.75,0,0,0,1-1.5,4.63,4.63,0,0,0,.37-1.84,4.79,4.79,0,0,0-.37-1.86,4.57,4.57,0,0,0-2.53-2.52,4.81,4.81,0,0,0-1.87-.37,4.66,4.66,0,0,0-1.85.37,4.74,4.74,0,0,0-1.5,1,4.69,4.69,0,0,0-1,1.52,4.76,4.76,0,0,0-.37,1.86,4.61,4.61,0,0,0,.37,1.84A4.73,4.73,0,0,0,264.92,81.12Z"/><path class="cls-3" d="M198.69,122.18H310.22a4.22,4.22,0,0,0,1.71-.35,4.44,4.44,0,0,0,2.34-2.34,4.22,4.22,0,0,0,.35-1.7l0-24.92a5.77,5.77,0,0,0-1.62-4,5.63,5.63,0,0,0-1.79-1.23,5.36,5.36,0,0,0-2.18-.45H298.18a15.74,15.74,0,0,0-7,1.5,15.41,15.41,0,0,0-5.1,4,17,17,0,0,0-3.1,5.62,20.45,20.45,0,0,0-1,6.48,21.24,21.24,0,0,0,.47,4.49,17.42,17.42,0,0,0,1.46,4.16H268.39V88.52H259.6v24.84H246.2V91.68a4.08,4.08,0,0,0-.35-1.68,4.51,4.51,0,0,0-2.34-2.32,4.24,4.24,0,0,0-1.71-.35l-16.19-.16a15.4,15.4,0,0,0-4.33.59,14.06,14.06,0,0,0-3.64,1.62,11.23,11.23,0,0,0-2.71,2.4,8.41,8.41,0,0,0-1.56,2.89V87.58h-8.79v25.78h-14V72.66H181.8v44.72a1.72,1.72,0,0,0,0,.41,4.2,4.2,0,0,0,.35,1.7,4.29,4.29,0,0,0,1,1.39,4.73,4.73,0,0,0,1.42.94,4.22,4.22,0,0,0,1.71.35h12.49Zm92.46-20.62a8.82,8.82,0,0,1,1.38-2.81,7,7,0,0,1,2.32-2,6.89,6.89,0,0,1,3.33-.76h7.6v17.38h-7.6a6.67,6.67,0,0,1-4.36-1.37,7.71,7.71,0,0,1-2.42-3.42,9.61,9.61,0,0,1-.53-1.91,11.53,11.53,0,0,1-.17-1.95A11.29,11.29,0,0,1,291.15,101.56Zm-77.79,3.85a8.88,8.88,0,0,1,1.11-4.2,9.11,9.11,0,0,1,2.69-3,11.93,11.93,0,0,1,3.8-1.74,17,17,0,0,1,4.44-.57l3,0,9,.1v17.3h-24Z"/><path class="cls-3" d="M196,49.52a4.26,4.26,0,0,0,2.61-.84,4.42,4.42,0,0,0,1.58-2.15v3H351.28a4.23,4.23,0,0,0,1.7-.35,4.74,4.74,0,0,0,1.42-.94,4.31,4.31,0,0,0,1-1.39,4.19,4.19,0,0,0,.35-1.7,1.77,1.77,0,0,0,0-.41V0h-8.79V40.7H333.61V19a4.06,4.06,0,0,0-.35-1.68,4.57,4.57,0,0,0-.95-1.37,4.49,4.49,0,0,0-1.4-.94,4.24,4.24,0,0,0-1.71-.35l-12.45-.16a13.43,13.43,0,0,0-4.4.55,16.24,16.24,0,0,0-3.92,1.78,16.75,16.75,0,0,0-3.33,2.75A18.74,18.74,0,0,0,302.54,23a17.18,17.18,0,0,0-1.64,3.81,13.67,13.67,0,0,0-.57,3.85v10H287.7a40.14,40.14,0,0,0-1.21-9.16,25.11,25.11,0,0,0-2.75-6.64,17.59,17.59,0,0,0-3.92-4.55,19.93,19.93,0,0,0-4.75-2.85,25.71,25.71,0,0,0-5.24-1.58,49.42,49.42,0,0,0-5.4-.72q-2.69-.2-5.24-.27t-4.73-.27l-.74,8.77q1.89.12,4.42.1a45.92,45.92,0,0,1,5.22.27,27.55,27.55,0,0,1,5.36,1.13,13.57,13.57,0,0,1,4.85,2.73,14.55,14.55,0,0,1,3.62,5,22,22,0,0,1,1.68,8H240.73V0h-8.79V40.7H218.46V15.86h-8.79V40.7h-9.25V15.86h-8.79V40.7h-9.2V15.86h-8.88v31a7.34,7.34,0,0,1-.74,3.4,7.42,7.42,0,0,1-1.93,2.4,7.72,7.72,0,0,1-2.77,1.41,11.83,11.83,0,0,1-6.47,0,7.72,7.72,0,0,1-2.75-1.41,7.13,7.13,0,0,1-2.67-5.8V31.73h-8.83V46.85a16,16,0,0,0,1.5,7.09,15.81,15.81,0,0,0,3.95,5.17,16.79,16.79,0,0,0,5.59,3.16,20.18,20.18,0,0,0,12.37.19,17.29,17.29,0,0,0,5.28-2.64,16.22,16.22,0,0,0,4-4.33,14.84,14.84,0,0,0,2.14-6ZM309.15,30.66a6.44,6.44,0,0,1,.62-2.73,8,8,0,0,1,1.66-2.36,8.81,8.81,0,0,1,2.38-1.66,6.3,6.3,0,0,1,2.73-.63h.21l.92,0,2.38,0,4.71.06V40.7H309.15Z"/><rect class="cls-2" x="365.21" width="8.79" height="49.44"/><path class="cls-3" d="M264.32,62.73a4.66,4.66,0,0,0,1.85.37,4.81,4.81,0,0,0,1.87-.37,4.67,4.67,0,0,0,1.52-1,4.73,4.73,0,0,0,1-1.5,4.62,4.62,0,0,0,.37-1.84,4.76,4.76,0,0,0-.37-1.86A4.57,4.57,0,0,0,268,54a4.81,4.81,0,0,0-1.87-.37,4.66,4.66,0,0,0-4.35,2.89,4.76,4.76,0,0,0-.37,1.86,4.62,4.62,0,0,0,.37,1.84,4.68,4.68,0,0,0,2.51,2.5Z"/></svg>